HIERARCHY
ROOT root
{
	OFFSET 0.000000 0.000000 0.000000
	CHANNELS 6 Xposition Yposition Zposition Zrotation Yrotation Xrotation
	JOINT lhip
	{
		OFFSET 0.058581 -0.082280 -0.017664
		CHANNELS 3 Zrotation Yrotation Xrotation
		JOINT lknee
		{
			OFFSET 0.043451 -0.386469 0.008037
			CHANNELS 3 Zrotation Yrotation Xrotation
			JOINT lankle
			{
				OFFSET -0.014790 -0.426874 -0.037428
				CHANNELS 3 Zrotation Yrotation Xrotation
				JOINT ltoe
				{
					OFFSET 0.041054 -0.060286 0.122042
					CHANNELS 3 Zrotation Yrotation Xrotation
					End Site
					{
						OFFSET 0.000000 0.000000 0.000000
					}
				}
			}
		}
	}
	JOINT rhip
	{
		OFFSET -0.060310 -0.090513 -0.013543
		CHANNELS 3 Zrotation Yrotation Xrotation
		JOINT rknee
		{
			OFFSET -0.043257 -0.383688 -0.004843
			CHANNELS 3 Zrotation Yrotation Xrotation
			JOINT rankle
			{
				OFFSET 0.019056 -0.420046 -0.034562
				CHANNELS 3 Zrotation Yrotation Xrotation
				JOINT rtoe
				{
					OFFSET -0.034840 -0.062106 0.130323
					CHANNELS 3 Zrotation Yrotation Xrotation
					End Site
					{
						OFFSET 0.000000 0.000000 0.000000
					}
				}
			}
		}
	}
	JOINT lowerback
	{
		OFFSET 0.004439 0.124404 -0.038385
		CHANNELS 3 Zrotation Yrotation Xrotation
		JOINT upperback
		{
			OFFSET 0.004488 0.137956 0.026820
			CHANNELS 3 Zrotation Yrotation Xrotation
			JOINT chest
			{
				OFFSET -0.002265 0.056032 0.002855
				CHANNELS 3 Zrotation Yrotation Xrotation
				JOINT lowerneck
				{
					OFFSET -0.013390 0.211636 -0.033468
					CHANNELS 3 Zrotation Yrotation Xrotation
					JOINT upperneck
					{
						OFFSET 0.010113 0.088937 0.050410
						CHANNELS 3 Zrotation Yrotation Xrotation
						End Site
						{
							OFFSET 0.000000 0.000000 0.000000
						}
					}
				}
				JOINT lclavicle
				{
					OFFSET 0.071702 0.114000 -0.018898
					CHANNELS 3 Zrotation Yrotation Xrotation
					JOINT lshoulder
					{
						OFFSET 0.122921 0.045205 -0.019046
						CHANNELS 3 Zrotation Yrotation Xrotation
						JOINT lelbow
						{
							OFFSET 0.255332 -0.015649 -0.022946
							CHANNELS 3 Zrotation Yrotation Xrotation
							JOINT lwrist
							{
								OFFSET 0.265709 0.012698 -0.007375
								CHANNELS 3 Zrotation Yrotation Xrotation
								End Site
								{
									OFFSET 0.000000 0.000000 0.000000
								}
							}
						}
					}
				}
				JOINT rclavicle
				{
					OFFSET -0.082954 0.112472 -0.023707
					CHANNELS 3 Zrotation Yrotation Xrotation
					JOINT rshoulder
					{
						OFFSET -0.113228 0.046853 -0.008472
						CHANNELS 3 Zrotation Yrotation Xrotation
						JOINT relbow
						{
							OFFSET -0.260127 -0.014369 -0.031269
							CHANNELS 3 Zrotation Yrotation Xrotation
							JOINT rwrist
							{
								OFFSET -0.269108 0.006794 -0.006027
								CHANNELS 3 Zrotation Yrotation Xrotation
								End Site
								{
									OFFSET 0.000000 0.000000 0.000000
								}
							}
						}
					}
				}
			}
		}
	}
}
MOTION
Frames: 5
Frame Time: 0.033333
0.460047 0.640738 0.607143 -27.437481 -4.405485 75.741580 8.806792 -9.610510 -43.243293 -9.833056 8.504247 120.953445 -3.851564 16.073330 -43.754980 0.000000 -0.000000 0.000000 -33.415467 -12.751379 -51.930471 6.285637 2.447731 106.963666 10.930073 -1.456068 -34.059020 0.000000 -0.000000 0.000000 3.678001 2.677987 42.339647 5.540000 1.333918 -7.496848 3.391723 1.075428 -0.462170 -6.166745 -0.810831 -28.130453 1.092566 -5.384129 -8.817677 1.559770 -15.838384 -14.957506 -17.470180 -17.464080 -15.274910 137.739511 -42.648531 -95.365867 47.343688 -18.131904 5.919386 17.294473 22.075982 -4.901833 49.921204 10.563289 -7.242599 -56.101016 32.739819 -58.945989 1.453421 10.054345 -36.860848 
0.460487 0.642283 0.602198 -27.604120 -4.347383 75.696440 9.274987 -9.272549 -43.933662 -9.980345 8.747822 121.830307 -4.030495 15.805111 -43.678764 0.000000 -0.000000 0.000000 -33.496635 -12.886239 -52.697426 6.353788 2.392754 107.687759 11.018033 -1.122998 -34.087714 0.000000 -0.000000 0.000000 3.801431 2.917133 42.458378 5.745327 1.493057 -7.191393 3.863836 1.216985 -0.532070 -6.944694 -1.100686 -28.093906 0.900095 -4.850358 -9.552251 2.204534 -16.127398 -15.393451 -18.414864 -16.724599 -15.565159 137.868078 -42.464028 -95.209828 48.113720 -18.280438 5.328445 16.700924 22.548350 -4.852609 49.580173 10.792297 -7.921540 -56.958497 32.524210 -59.744339 2.174378 10.270131 -36.729811 
0.460776 0.643476 0.597829 -27.529094 -4.557675 75.785843 9.549604 -9.350124 -44.680777 -10.017374 9.122633 122.487476 -4.143347 15.532001 -43.653396 0.000000 -0.000000 0.000000 -34.011061 -13.357253 -53.434127 6.512305 2.309937 108.296654 11.453237 -0.689164 -33.764712 0.000000 -0.000000 0.000000 3.878021 3.133546 42.336072 5.778614 1.586284 -7.132367 3.855804 1.431071 -0.380492 -7.345363 -0.843396 -28.186384 0.794740 -5.373661 -10.162206 2.537245 -16.299864 -16.014728 -18.131169 -17.173330 -15.472104 137.422635 -42.776274 -94.908822 48.185455 -18.414206 5.491597 16.637297 22.409884 -5.322932 49.444411 10.796861 -7.766542 -57.780131 32.245097 -60.681491 1.643554 9.883258 -36.568511 
0.461245 0.643858 0.596412 -27.439506 -4.689442 75.826405 9.496242 -9.472709 -44.974925 -9.991047 9.271777 122.703794 -4.091154 15.549156 -43.635694 0.000000 -0.000000 0.000000 -34.290722 -13.656175 -53.660044 6.630886 2.291990 108.434947 11.508032 -0.580983 -33.644678 0.000000 -0.000000 0.000000 4.006162 3.080954 42.246102 5.781711 1.506486 -6.989622 3.829231 1.474998 -0.345052 -7.338244 -0.920224 -28.214320 0.867134 -5.400228 -10.609111 2.737562 -16.384687 -16.115948 -17.980566 -16.909588 -15.591557 137.241974 -42.644683 -94.899992 48.326716 -18.461389 5.527018 16.456054 22.573411 -5.294188 49.476320 10.907280 -7.848407 -58.175943 32.080073 -61.165294 1.475517 9.694818 -36.402426 
0.460757 0.645337 0.596530 -27.491314 -4.943712 75.805307 9.371297 -9.279880 -45.002589 -10.131729 9.310619 122.530595 -4.044724 15.547268 -43.549631 0.000000 -0.000000 0.000000 -34.516740 -14.047079 -53.912969 6.748187 2.184856 108.459311 11.263953 -0.418671 -33.491719 0.000000 -0.000000 0.000000 4.229078 2.906723 42.510432 5.673413 1.410585 -6.919772 3.895651 1.479764 -0.568044 -7.692344 -0.929869 -28.400602 1.083550 -4.799509 -11.532210 3.372336 -16.476778 -16.453050 -17.675543 -15.822535 -16.101515 136.957239 -42.346230 -94.700421 48.333653 -17.966684 5.215570 15.673000 23.207170 -5.351198 50.056634 11.095879 -8.000664 -58.289412 31.532587 -61.283765 1.651005 9.055729 -37.158288 
